<svg width="1240" height="180" viewBox="0 0 1240 180" fill="none" xmlns="http://www.w3.org/2000/svg">
<path d="M154.733 114.204L152.59 122.213L128.889 115.853L127.721 120.222L127.067 123.246L119.061 153.169L109.464 150.594C108.372 147.492 106.808 144.601 104.772 141.922C102.784 139.255 100.414 136.851 97.6628 134.708C94.9245 132.517 91.8157 130.642 88.3364 129.084L87 119.517C92.1214 118.239 97.6288 117.167 103.522 116.304C109.477 115.404 115.205 114.965 120.706 114.984L118.76 116.725L119.656 113.376L88.8305 105.104L90.9734 97.0954L154.733 114.204ZM117.237 121.544L118.335 123.556C116.034 123.614 113.792 123.741 111.61 123.936C109.476 124.144 107.323 124.425 105.151 124.778C102.991 125.083 100.733 125.465 98.3763 125.926C100.26 126.847 102.138 128.079 104.011 129.622C105.945 131.13 107.729 132.909 109.362 134.96C111.043 137.024 112.442 139.272 113.557 141.704L112.034 142.154C112.219 141.267 112.406 140.277 112.595 139.183C112.833 138.102 113.113 136.955 113.438 135.742L117.237 121.544ZM144.589 139.887C144.16 141.488 143.412 142.926 142.344 144.2C141.324 145.487 139.891 146.377 138.045 146.87C136.199 147.363 133.846 147.226 130.986 146.459C129.968 146.186 129.03 145.908 128.17 145.625C127.372 145.307 126.629 144.978 125.941 144.637L128.375 136.706C128.604 136.82 128.882 136.946 129.208 137.086C129.596 137.19 130.081 137.32 130.662 137.476C132.407 137.944 133.624 137.959 134.313 137.519C135.015 137.031 135.483 136.351 135.717 135.477C136.158 133.827 135.506 132.091 133.759 130.27C132.013 128.449 129.219 126.658 125.378 124.899L127.501 116.964C131.333 118.564 134.671 120.552 137.516 122.928C140.422 125.269 142.526 127.888 143.829 130.787C145.193 133.65 145.446 136.683 144.589 139.887Z" fill="#FFEBAB"/>
<path d="M501.592 121.681L493.741 92.3402L496.396 94.9832C494.953 93.8617 493.42 92.7905 491.796 91.7696C490.221 90.7357 488.581 89.8492 486.877 89.11C485.221 88.3577 483.502 87.8565 481.721 87.6061C479.988 87.3428 478.225 87.4517 476.432 87.9329C474.154 88.5442 472.473 89.5415 471.388 90.925C470.304 92.3084 469.307 93.8245 468.398 95.4732L467.486 95.5616C468.287 94.6705 469.241 93.8683 470.349 93.1548C471.443 92.3928 472.888 91.7713 474.681 91.29C476.862 90.7048 478.79 90.6297 480.465 91.0646C482.188 91.4866 483.626 92.2973 484.778 93.4968C485.917 94.6478 486.714 96.0727 487.168 97.7715C487.948 100.684 487.595 103.639 486.112 106.639C484.677 109.625 482.128 112.91 478.464 116.494L470.854 110.187C473.327 108.17 475.226 106.334 476.549 104.679C477.921 103.01 478.425 101.496 478.061 100.137C477.84 99.3121 477.405 98.7526 476.755 98.4589C476.14 98.1035 475.227 98.0885 474.015 98.4136C473.046 98.6737 472.091 99.0859 471.152 99.6503C470.212 100.215 469.202 101.006 468.124 102.023L458.854 97.9559C459.888 95.0253 461.066 92.3422 462.389 89.9064C463.759 87.4577 465.386 85.3826 467.268 83.6809C469.138 81.9308 471.357 80.7111 473.926 80.0218C476.252 79.3975 478.519 79.2313 480.727 79.5232C482.984 79.8021 485.32 80.4758 487.736 81.5443C490.138 82.5643 492.784 83.9093 495.672 85.5793L492.24 85.564C492.084 84.9815 491.815 84.1694 491.432 83.1276C491.036 82.0372 490.624 80.6912 490.196 79.0895L488.189 71.5904L496.114 69.464L498.999 73.84L506.051 71.9477L508.194 79.9564L501.214 81.8292L511.188 119.106L501.592 121.681Z" fill="#FFEBAB"/>
<path d="M363.935 46.9749L361.793 54.9836L354.813 53.1108L344.839 90.3877L335.243 87.8126C334.092 85.3188 332.81 83.0239 331.396 80.928C329.983 78.832 328.366 76.9155 326.545 75.1783C324.724 73.4412 322.657 71.8461 320.345 70.3932C318.094 68.9048 315.506 67.5082 312.583 66.2035L312.443 57.1142L316.265 60.0125C320.837 61.7595 324.476 63.5943 327.182 65.517C329.901 67.3912 332.084 69.3294 333.73 71.3318C335.389 73.2856 336.89 75.249 338.232 77.2218C338.482 76.0925 338.733 74.9631 338.983 73.8337C339.294 72.6688 339.619 71.4554 339.957 70.1934L348.645 37.7217L356.497 39.8286L356.883 45.0826L363.935 46.9749ZM340.171 53.0835C339.47 55.7045 338.197 57.9381 336.352 59.7841C334.556 61.6432 332.179 62.9561 329.221 63.723C326.311 64.5028 322.779 64.5957 318.627 64.0016L312.982 60.9263L312.443 57.1142C316.163 57.3841 319.279 57.3878 321.791 57.1254C324.303 56.863 326.278 56.2746 327.718 55.3603C329.157 54.446 330.098 53.1637 330.539 51.5134C330.929 50.0573 330.782 48.6652 330.098 47.3373C329.463 46.0224 328.663 44.7412 327.698 43.4939L338.403 39.8895C339.406 41.7713 340.095 43.8551 340.47 46.1408C340.894 48.4395 340.795 50.7537 340.171 53.0835ZM318.725 50.5282C315.478 49.6568 313.092 48.1844 311.569 46.111C310.059 43.989 309.674 41.5447 310.414 38.7781C310.726 37.6132 311.164 36.5601 311.727 35.6188C312.304 34.629 312.927 33.7558 313.597 32.9992L321.63 37.3398C321.32 37.7246 321.04 38.0916 320.79 38.4409C320.59 38.8032 320.431 39.2028 320.314 39.6396C320.08 40.5133 320.178 41.2158 320.607 41.7472C321.036 42.2785 321.663 42.6548 322.487 42.8759C323.408 43.123 324.271 43.1984 325.076 43.1023C325.942 42.9706 326.86 42.6448 327.831 42.1248C328.814 41.5563 329.948 40.7161 331.232 39.6041L338.403 39.8895L338.608 42.9097C336.478 45.0435 334.398 46.8003 332.366 48.18C330.383 49.5727 328.293 50.4943 326.094 50.9449C323.896 51.3954 321.439 51.2565 318.725 50.5282Z" fill="#FFEBAB"/>
<path d="M613.321 26.7371V35.0283H606.096V73.6202H596.161C594.505 71.5097 592.422 69.6253 589.913 67.9671C587.405 66.2586 584.519 64.8264 581.258 63.6707C577.996 62.4647 574.383 61.5853 570.419 61.0326L567.258 54.0981C568.212 53.3946 569.165 52.7414 570.118 52.1384C571.072 51.5354 572.025 50.9324 572.978 50.3294C573.982 49.7264 574.986 49.1234 575.989 48.5204L579.075 50.1032C578.674 50.1535 578.348 50.1786 578.097 50.1786C577.846 50.1786 577.67 50.1786 577.57 50.1786C574.81 50.1786 572.552 49.7515 570.796 48.8972C569.039 48.043 567.735 46.9375 566.882 45.5808C566.079 44.224 565.678 42.7919 565.678 41.2844C565.678 38.8724 566.405 36.8875 567.86 35.3298C569.315 33.7218 571.473 32.0635 574.333 30.355L583.967 32.767C581.107 33.8725 579.05 35.0785 577.796 36.385C576.541 37.6413 575.914 39.0231 575.914 40.5306C575.914 42.0381 576.365 43.0683 577.269 43.621C578.222 44.1235 579.201 44.3748 580.204 44.3748C581.358 44.3748 582.487 44.1989 583.591 43.8471C584.745 43.4954 586.025 42.8924 587.43 42.0381L591.795 48.5957C590.189 49.3997 588.609 50.2037 587.053 51.0077C585.498 51.8117 583.992 52.6409 582.537 53.4951C581.082 54.2991 579.702 55.1533 578.398 56.0578V54.6257C581.86 55.3795 585.071 56.4598 588.032 57.8668C590.992 59.2236 593.752 61.0828 596.311 63.4446C596.311 62.6908 596.286 61.8868 596.236 61.0326C596.186 60.1281 596.161 59.2487 596.161 58.3945V35.0283H561.99V26.7371H613.321Z" fill="#FFEBAB"/>
<path d="M997.863 0.796875L1000.01 8.80559L993.026 10.6784L1003 47.9553L993.403 50.5304C991.358 48.3221 988.853 46.6273 985.887 45.4462C982.957 44.2035 980.191 43.2811 977.588 42.6789L980.149 35.3588C982.277 35.9325 984.254 36.6244 986.081 37.4347C987.944 38.1834 989.509 38.9859 990.777 39.8421C990.586 39.3212 990.395 38.8003 990.203 38.2794C990.061 37.7455 989.887 37.1938 989.683 36.6244C989.514 35.9934 989.345 35.3624 989.176 34.7314L983.429 13.2535L928.757 27.9238L926.614 19.9151L997.863 0.796875ZM966.796 51.2712C962.822 52.3376 958.882 52.5625 954.977 51.9457C951.12 51.3159 947.293 49.5337 943.494 46.5992C939.745 43.6516 935.984 39.3025 932.211 33.5519L940.617 28.5651C943.376 32.6629 945.987 35.9161 948.449 38.3246C950.912 40.7331 953.416 42.3243 955.96 43.0981C958.492 43.8234 961.212 43.7958 964.12 43.0155C966.398 42.4042 968.186 41.6123 969.484 40.6397C970.831 39.654 971.718 38.5055 972.147 37.194C972.575 35.8826 972.588 34.4745 972.185 32.9699C971.692 31.1254 970.8 29.8301 969.509 29.084C968.254 28.2763 966.851 28.0805 965.3 28.4967C964.234 28.7828 963.481 29.2708 963.042 29.9608C962.604 30.6508 962.501 31.4326 962.735 32.3063C962.839 32.6946 963.004 33.1184 963.231 33.5778C963.445 33.9886 963.676 34.3687 963.926 34.718L955.261 38.4475C954.627 37.6294 954.096 36.8095 953.668 35.9878C953.241 35.1662 952.942 34.4398 952.773 33.8088C952.137 31.4305 952.194 29.4122 952.946 27.754C953.684 26.0473 954.865 24.6379 956.49 23.5257C958.163 22.4005 959.993 21.5712 961.98 21.038C965.324 20.1406 968.383 20.0221 971.157 20.6823C973.918 21.294 976.228 22.5471 978.085 24.4417C979.991 26.3233 981.321 28.6717 982.074 31.4869C982.776 34.1079 982.771 36.7103 982.059 39.2942C981.348 41.8781 979.744 44.2332 977.248 46.3596C974.788 48.4245 971.304 50.0617 966.796 51.2712ZM955.476 27.3092C954.853 25.7595 953.781 24.5647 952.257 23.725C950.734 22.8852 948.762 22.504 946.341 22.5813L950.936 17.9147L954.495 17.8182C957.508 18.2062 959.802 18.9172 961.377 19.9512C962.953 20.9851 964.141 22.5131 964.941 24.5351L955.476 27.3092Z" fill="#FFEBAB"/>
<path d="M824.859 107.656L822.716 115.665L815.737 113.792L805.763 151.069L796.166 148.493C795.497 145.557 794.174 142.835 792.195 140.327C790.279 137.784 788.343 135.6 786.39 133.775L792.263 128.718C793.819 130.28 795.186 131.869 796.363 133.486C797.603 135.067 798.558 136.546 799.228 137.922C799.323 137.375 799.417 136.828 799.512 136.282C799.654 135.748 799.78 135.183 799.887 134.587C800.056 133.956 800.225 133.326 800.393 132.695L806.14 111.217L751.468 96.5463L753.611 88.5376L824.859 107.656ZM772.754 135.812C768.78 134.746 765.255 132.968 762.181 130.478C759.156 128.002 756.731 124.542 754.907 120.099C753.131 115.669 752.045 110.019 751.649 103.15L761.419 103.04C761.762 107.97 762.399 112.095 763.329 115.414C764.259 118.733 765.633 121.364 767.45 123.309C769.281 125.204 771.65 126.542 774.558 127.323C776.836 127.934 778.78 128.143 780.39 127.951C782.048 127.772 783.39 127.222 784.416 126.3C785.442 125.379 786.156 124.166 786.558 122.661C787.052 120.817 786.926 119.249 786.181 117.956C785.497 116.628 784.38 115.756 782.829 115.34C781.763 115.054 780.867 115.1 780.143 115.478C779.419 115.855 778.939 116.481 778.706 117.355C778.602 117.743 778.533 118.193 778.5 118.704C778.48 119.167 778.491 119.612 778.533 120.04L769.167 118.931C769.026 117.905 768.975 116.929 769.015 116.003C769.055 115.077 769.16 114.299 769.328 113.668C769.965 111.29 771.022 109.571 772.501 108.511C773.992 107.402 775.719 106.773 777.681 106.623C779.692 106.487 781.69 106.685 783.678 107.218C787.022 108.115 789.73 109.545 791.803 111.505C793.889 113.418 795.263 115.659 795.926 118.23C796.637 120.814 796.616 123.513 795.863 126.329C795.162 128.95 793.858 131.201 791.952 133.083C790.046 134.964 787.481 136.201 784.258 136.792C781.096 137.349 777.262 137.022 772.754 135.812ZM774.914 109.392C775.149 107.739 774.816 106.167 773.916 104.677C773.016 103.187 771.498 101.869 769.363 100.724L775.673 98.9835L778.803 100.682C781.219 102.526 782.85 104.291 783.698 105.975C784.547 107.659 784.813 109.577 784.496 111.73L774.914 109.392ZM846.961 113.586L844.818 121.595L837.838 119.722L827.864 156.999L818.268 154.424L826.917 122.098C826.622 120.094 826.136 118.611 825.458 117.649C824.793 116.638 823.831 115.964 822.571 115.626L821.48 115.333L823.623 107.324L825.223 107.753C826.192 108.013 827.046 108.607 827.785 109.533C828.573 110.473 829.127 111.896 829.448 113.803C829.465 113.548 829.541 112.97 829.678 112.07C829.863 111.184 830.04 110.425 830.209 109.794L831.67 104.333L839.522 106.44L839.909 111.694L846.961 113.586Z" fill="#FFEBAB"/>
<path d="M1137.82 97.667C1142.44 97.667 1145.98 98.6971 1148.43 100.757C1150.94 102.818 1152.2 105.657 1152.2 109.275C1152.2 111.837 1151.5 114.174 1150.09 116.285C1148.74 118.345 1146.85 120.179 1144.45 121.787C1142.09 123.345 1139.4 124.676 1136.39 125.782L1132.93 117.641C1135.44 116.787 1137.57 115.732 1139.33 114.476C1141.13 113.219 1142.04 111.561 1142.04 109.501C1142.04 108.345 1141.66 107.441 1140.91 106.787C1140.16 106.134 1139.03 105.807 1137.52 105.807C1136.17 105.807 1134.86 106.034 1133.61 106.486C1132.35 106.938 1131.2 107.516 1130.14 108.219C1129.14 108.873 1128.34 109.601 1127.74 110.405C1127.18 111.159 1126.91 111.837 1126.91 112.44C1126.91 112.993 1127.11 113.496 1127.51 113.948C1127.91 114.35 1128.82 114.651 1130.22 114.852L1128.19 123.219C1124.37 122.817 1121.51 121.661 1119.61 119.752C1117.7 117.842 1116.75 115.631 1116.75 113.119C1116.75 111.008 1117.32 109.023 1118.48 107.164C1119.63 105.255 1121.21 103.596 1123.22 102.189C1125.23 100.782 1127.49 99.677 1129.99 98.873C1132.5 98.069 1135.11 97.667 1137.82 97.667ZM1152.88 128.797C1152.88 133.068 1151.19 136.535 1147.83 139.198C1144.52 141.811 1139.98 143.118 1134.21 143.118C1130.25 143.118 1126.53 142.59 1123.07 141.535C1119.61 140.43 1116.4 138.621 1113.44 136.108C1110.53 133.596 1107.87 130.179 1105.46 125.857C1103.1 121.485 1100.97 116.033 1099.06 109.501L1108.47 106.863C1110.53 113.697 1112.73 119.149 1115.09 123.219C1117.5 127.239 1120.18 130.128 1123.15 131.887C1126.11 133.596 1129.49 134.45 1133.31 134.45C1135.92 134.45 1138.15 133.872 1140 132.716C1141.86 131.56 1142.79 129.902 1142.79 127.741C1142.79 126.033 1142.19 124.651 1140.98 123.596C1139.78 122.49 1138.32 121.661 1136.62 121.109L1145.57 117.114C1147.68 118.521 1149.41 120.204 1150.77 122.164C1152.17 124.073 1152.88 126.284 1152.88 128.797Z" fill="#FFEBAB"/>
</svg>
