<svg width="460" height="424" viewBox="0 0 460 424" fill="none" xmlns="http://www.w3.org/2000/svg">
<path d="M459.254 261.121C459.747 260.24 459.998 259.289 459.995 258.279C459.959 242.776 459.659 109.832 459.822 6.06156C459.827 2.74481 457.35 0.077373 454.033 0.0759216C409.859 0.0565907 126.502 -0.0621703 61.8219 0.042775C56.8277 0.0508782 54.2455 5.8162 57.1841 9.85427C101.502 70.7531 127.078 152.127 123.781 226.755C122.917 246.332 120.239 266.086 112.663 284.156C105.341 301.638 93.4457 317.16 78.5339 328.854C75.1857 331.479 75.1559 336.687 78.7692 338.934C131.985 372.021 192.442 373.219 255.799 366.099C295.315 361.655 334.925 354.042 371.094 337.533C406.816 321.218 440.073 295.348 459.254 261.121Z" fill="white"/>
<path d="M49 0L57 9.5L73 10.5L72.5 0H49Z" fill="white"/>
<path d="M80.8626 40.143C83.3818 40.143 83.3911 36.2202 80.8626 36.2202C78.3342 36.2295 78.3342 40.143 80.8626 40.143Z" fill="#84A9F6"/>
<path d="M27.9791 97.9163C28.4997 98.1766 29.0109 98.4369 29.5315 98.6878C30.2659 99.1526 31.0467 99.4036 31.8926 99.4408C32.7385 99.6267 33.5845 99.5895 34.4304 99.3292C35.9084 98.9202 37.5073 97.7862 38.2323 96.4011C39.0132 94.9231 39.4036 93.1383 38.8737 91.5022C38.3811 89.987 37.4236 88.4346 35.9456 87.7003C35.425 87.44 34.9137 87.1797 34.3932 86.9287C33.6588 86.4639 32.878 86.2129 32.0321 86.1758C31.1861 85.9899 30.3402 86.027 29.4943 86.2873C28.0163 86.6963 26.4174 87.8304 25.6924 89.2155C24.9115 90.6935 24.5211 92.4783 25.051 94.1143C25.5436 95.6295 26.5011 97.1726 27.9791 97.9163Z" fill="#F45B6A" fill-opacity="0.6"/>
<path d="M88.2992 151.832C90.9949 151.832 90.9949 147.648 88.2992 147.648C85.6034 147.648 85.6034 151.832 88.2992 151.832Z" fill="#504BBF" fill-opacity="0.6"/>
<path d="M29.8474 338.369C32.5432 338.369 32.5432 334.186 29.8474 334.186C27.161 334.186 27.1517 338.369 29.8474 338.369Z" fill="#504BBF" fill-opacity="0.6"/>
<path d="M31.5951 208.303C33.0267 208.303 34.5233 207.681 35.5365 206.667C36.5033 205.701 37.2283 204.111 37.1726 202.726C37.1075 201.285 36.6334 199.788 35.5365 198.784C34.4489 197.781 33.101 197.148 31.5951 197.148C30.1636 197.148 28.6669 197.771 27.6537 198.784C26.687 199.751 25.9619 201.341 26.0177 202.726C26.0827 204.167 26.5568 205.663 27.6537 206.667C28.7413 207.671 30.0799 208.303 31.5951 208.303Z" fill="#84A9F6"/>
<path d="M92.445 384.207C92.4915 384.383 92.5379 384.551 92.5937 384.727C92.9377 385.945 94.1647 386.977 95.4754 386.921C96.7954 386.865 97.9853 386.038 98.3571 384.727C98.4036 384.551 98.45 384.383 98.5058 384.207C99.0636 382.236 97.5019 380.237 95.4847 380.237C93.4582 380.237 91.8872 382.245 92.445 384.207Z" fill="white"/>
<path d="M47.7787 318.765C47.9089 318.885 48.039 318.997 48.1692 319.118C48.7176 319.61 49.4799 319.62 50.0376 319.118C50.1678 318.997 50.2979 318.885 50.428 318.765C51.6179 317.686 50.6976 315.492 49.0987 315.567C48.448 315.595 47.8159 315.92 47.4813 316.496C47.0816 317.184 47.1652 318.216 47.7787 318.765Z" fill="#FFD539"/>
<path d="M369.96 370.095C370.016 370.095 370.016 370.002 369.96 370.002C369.895 370.002 369.895 370.095 369.96 370.095Z" fill="white"/>
<path d="M417.369 336.212C424.656 336.212 424.675 324.881 417.369 324.881C410.081 324.881 410.062 336.212 417.369 336.212Z" fill="#84A9F6"/>
<path d="M371.819 233.448C371.875 233.448 371.875 233.355 371.819 233.355C371.754 233.355 371.754 233.448 371.819 233.448Z" fill="white"/>
<path d="M237.133 92.8131C241.447 92.8131 241.456 86.1016 237.133 86.1016C232.82 86.1016 232.811 92.8131 237.133 92.8131Z" fill="white"/>
<path d="M379.247 323.719C381.71 323.719 381.72 319.89 379.247 319.89C376.774 319.89 376.774 323.719 379.247 323.719Z" fill="white"/>
<path d="M419.228 35.4484C419.284 35.4484 419.284 35.3555 419.228 35.3555C419.163 35.3555 419.163 35.4484 419.228 35.4484Z" fill="white"/>
<path d="M206.355 38.9812C209.776 38.9812 209.785 33.6641 206.355 33.6641C202.934 33.6734 202.925 38.9812 206.355 38.9812Z" fill="#504BBF" fill-opacity="0.6"/>
<path d="M90.3164 106.923C95.4197 106.923 95.429 98.9941 90.3164 98.9941C85.213 98.9941 85.2037 106.923 90.3164 106.923Z" fill="#504BBF" fill-opacity="0.6"/>
<path d="M73.6119 286.359C73.7978 286.35 73.9837 286.332 74.1696 286.322C75.6755 286.22 77.0606 285.765 78.1482 284.677C79.1243 283.701 79.8586 282.102 79.7935 280.698C79.7285 279.239 79.2544 277.733 78.1482 276.72C77.7671 276.422 77.3859 276.134 77.0141 275.837C76.1403 275.325 75.1922 275.074 74.1789 275.065C73.993 275.056 73.8071 275.037 73.6212 275.028C72.2361 274.935 70.5722 275.725 69.6147 276.683C68.6294 277.668 67.895 279.276 67.9601 280.689C68.0251 282.158 68.5085 283.673 69.6147 284.696C70.6744 285.681 72.1246 286.462 73.6119 286.359Z" fill="#F45B6A" fill-opacity="0.6"/>
<path d="M413.65 81.9274C413.706 81.9274 413.706 81.8345 413.65 81.8345C413.585 81.8345 413.585 81.9274 413.65 81.9274Z" fill="white"/>
<path d="M448.398 78.7578C451.874 78.7578 451.884 73.3569 448.398 73.3569C444.921 73.3476 444.912 78.7578 448.398 78.7578Z" fill="#F45B6A" fill-opacity="0.6"/>
<path d="M334.636 34.9186C341.199 34.9186 341.208 24.7212 334.636 24.7212C328.073 24.7212 328.064 34.9186 334.636 34.9186Z" fill="#F45B6A" fill-opacity="0.6"/>
<path d="M14.2308 19.7854C14.0355 19.7947 13.8496 19.8133 13.6544 19.8226C9.50852 20.1107 9.49922 25.9949 13.6544 26.2831C13.8496 26.2924 14.0355 26.311 14.2308 26.3203C18.4324 26.6085 18.4417 19.4972 14.2308 19.7854Z" fill="#504BBF" fill-opacity="0.6"/>
<path d="M63.2564 51.2239C63.0241 51.1496 62.801 51.0845 62.5686 51.0101C60.3748 50.3408 57.6046 51.0287 56.0429 52.7391C54.8345 54.0498 54.0815 55.6673 54.0815 57.48C54.0815 59.1997 54.8345 61.0124 56.0429 62.2208C57.6976 63.8754 60.3004 64.6377 62.5686 63.9498C62.801 63.8754 63.0241 63.8104 63.2564 63.736C63.777 63.5222 64.2883 63.2991 64.8088 63.0853C65.5618 62.6763 66.1753 62.1185 66.6308 61.4121C67.0305 61.0031 67.3094 60.529 67.4674 59.9805C67.8764 59.209 68.0623 58.3724 68.0252 57.48C67.9694 56.3273 67.6812 55.2211 67.1421 54.1986C66.3705 52.767 64.7717 51.698 63.2564 51.2239Z" fill="white"/>
<path d="M204.701 249.455C204.468 249.381 204.245 249.316 204.013 249.242C201.819 248.572 199.049 249.26 197.487 250.971C196.279 252.281 195.526 253.899 195.526 255.711C195.526 257.431 196.279 259.244 197.487 260.452C199.142 262.107 201.744 262.878 204.013 262.181C204.245 262.107 204.468 262.042 204.701 261.967C205.221 261.754 205.732 261.531 206.253 261.317C207.006 260.908 207.619 260.35 208.075 259.644C208.475 259.235 208.753 258.76 208.912 258.212C209.321 257.44 209.506 256.604 209.469 255.711C209.413 254.559 209.125 253.453 208.586 252.43C207.815 250.989 206.216 249.92 204.701 249.455Z" fill="white"/>
<path d="M35.3133 158.552C35.6201 158.561 35.9361 158.599 36.2429 158.589C36.6891 158.58 37.1446 158.459 37.5722 158.366C39.673 157.901 39.673 154.583 37.5722 154.118C37.1446 154.025 36.6705 153.895 36.2429 153.895C35.9361 153.895 35.6201 153.923 35.3133 153.932C34.1049 153.988 32.9429 154.955 33.008 156.238C33.0638 157.539 34.0212 158.496 35.3133 158.552Z" fill="white"/>
<path d="M76.4936 235.121C76.317 235.159 76.1404 235.196 75.9637 235.233C75.499 235.428 75.0342 235.623 74.5787 235.819C73.9001 236.181 73.3609 236.683 72.9519 237.315C72.199 238.291 71.6505 239.565 71.7063 240.838C71.7528 241.87 72.0131 242.855 72.4964 243.776C72.859 244.454 73.3609 244.993 73.993 245.402C74.5508 245.914 75.2108 246.267 75.973 246.444C76.1497 246.481 76.3263 246.518 76.5029 246.555C77.5533 246.834 78.6037 246.834 79.6542 246.555C80.6581 246.276 81.5319 245.765 82.2663 245.031C83.326 243.869 84.0046 242.446 84.0046 240.838C84.0046 239.323 83.3446 237.724 82.2663 236.646C81.5226 235.912 80.6581 235.4 79.6542 235.121C78.5944 234.833 77.544 234.833 76.4936 235.121Z" fill="white"/>
<path d="M11.4325 283.311C14.7975 283.311 14.8068 278.086 11.4325 278.086C8.06743 278.086 8.06743 283.311 11.4325 283.311Z" fill="white"/>
<path d="M133.848 405.401C138.673 405.401 138.682 397.908 133.848 397.908C129.024 397.899 129.015 405.401 133.848 405.401Z" fill="#504BBF" fill-opacity="0.6"/>
<path d="M180.987 319.313C185.811 319.313 185.821 311.82 180.987 311.82C176.172 311.82 176.162 319.313 180.987 319.313Z" fill="#504BBF" fill-opacity="0.6"/>
<path d="M179.974 377.291C180.727 377.625 181.749 378.257 182.475 377.532C183.2 376.807 182.567 375.775 182.233 375.032C181.796 374.037 180.318 374.009 179.63 374.697C178.951 375.385 178.979 376.854 179.974 377.291Z" fill="white"/>
<path d="M214.033 355.901C214.517 356.199 215.009 356.506 215.558 356.654C216.887 357.017 218.607 356.654 219.574 355.604C220.457 354.646 220.875 353.438 220.698 352.137C220.596 351.356 220.28 350.714 219.871 350.064C218.43 347.73 215.139 347.228 213.169 349.199C212.397 349.971 211.914 351.123 211.914 352.22C211.923 353.754 212.75 355.102 214.033 355.901Z" fill="#84A9F6"/>
<path d="M237.031 409.667C240.173 409.667 240.173 404.787 237.031 404.787C233.889 404.787 233.88 409.667 237.031 409.667Z" fill="white"/>
<path d="M277.003 385.089C280.814 385.089 280.823 379.159 277.003 379.159C273.192 379.168 273.182 385.089 277.003 385.089Z" fill="#84A9F6"/>
<path d="M332.461 346.122C340.316 346.122 340.326 333.926 332.461 333.926C324.606 333.926 324.597 346.122 332.461 346.122Z" fill="#F45B6A" fill-opacity="0.6"/>
<path d="M376.467 390.584C380.167 390.584 380.176 384.83 376.467 384.83C372.768 384.83 372.758 390.584 376.467 390.584Z" fill="white"/>
<path d="M448.044 378.368C448.295 378.35 448.537 378.341 448.788 378.322C450.201 378.238 451.558 377.132 451.493 375.617C451.428 374.083 450.303 373.005 448.788 372.912C448.537 372.893 448.295 372.884 448.044 372.865C446.613 372.782 445.237 374.185 445.302 375.608C445.358 377.039 446.511 378.452 448.044 378.368Z" fill="#F45B6A" fill-opacity="0.6"/>
<path d="M338.345 284.956C339.201 285.244 340.102 285.216 340.985 285.03C342.315 284.751 343.607 283.459 343.895 282.12C344.081 281.237 344.109 280.345 343.821 279.481C343.309 277.984 342.278 276.803 340.716 276.376C339.182 275.957 337.509 276.394 336.393 277.519C335.269 278.644 334.832 280.317 335.25 281.842C335.678 283.413 336.858 284.444 338.345 284.956Z" fill="white"/>
<path d="M453.018 184.459C452.953 184.292 452.878 184.125 452.813 183.957C452.479 183.139 451.8 182.405 450.833 182.451C449.848 182.498 449.216 183.083 448.853 183.957C448.788 184.125 448.714 184.292 448.649 184.459C448.361 185.156 448.695 186.17 449.234 186.662C449.681 187.071 450.22 187.322 450.833 187.322C451.41 187.322 452.023 187.071 452.432 186.662C452.953 186.142 453.315 185.184 453.018 184.459Z" fill="white"/>
<path d="M283.51 13.4833C287.6 13.4833 287.609 7.12501 283.51 7.12501C279.41 7.11571 279.41 13.4833 283.51 13.4833Z" fill="white"/>
<path d="M120.221 76.5355C124.311 76.5355 124.32 70.1773 120.221 70.1773C116.131 70.168 116.121 76.5355 120.221 76.5355Z" fill="white"/>
<path d="M396.407 119.901C400.497 119.901 400.506 113.542 396.407 113.542C392.316 113.542 392.307 119.901 396.407 119.901Z" fill="white"/>
<path d="M117.804 19.9622C118.947 19.2929 119.895 18.4656 120.574 17.3036C121.345 15.9836 121.41 15.0541 121.559 13.5574C121.596 12.6279 121.401 11.7541 120.974 10.9453C120.704 10.1087 120.23 9.38365 119.57 8.77013C118.324 7.62676 116.539 6.61352 114.783 6.79014C113.286 6.93887 112.356 7.00394 111.036 7.77549C109.874 8.45408 109.047 9.40224 108.378 10.5456C108.145 11.0941 107.913 11.6425 107.681 12.191C107.392 13.102 107.355 14.0222 107.56 14.9332C107.56 15.556 107.718 16.1324 108.034 16.6715C108.313 17.5267 108.787 18.2611 109.456 18.8839C110.339 19.6926 111.362 20.2876 112.496 20.6501C113.407 20.9383 114.327 20.9754 115.238 20.7709C116.158 20.7338 117.014 20.4642 117.804 19.9622Z" fill="#F45B6A" fill-opacity="0.6"/>
<path d="M2.77827 125.654C6.47797 125.654 6.48727 119.9 2.77827 119.9C-0.92144 119.9 -0.930735 125.654 2.77827 125.654Z" fill="#504BBF" fill-opacity="0.6"/>
<path d="M454.551 18.0005C451.298 18.0005 451.298 23.0574 454.551 23.0574C454.551 23.0481 457.805 18.0005 454.551 18.0005Z" fill="white"/>
<path d="M35.1833 352.843L53.0219 383.863L138.636 357.927L103.953 296.194L35.1833 352.843Z" fill="white"/>
<path d="M53.1651 389.382C64.4366 383 68.624 369.084 62.5179 358.299C56.4117 347.515 42.3243 343.946 31.0527 350.327C19.7812 356.709 15.5938 370.625 21.7 381.41C27.8061 392.195 41.8935 395.764 53.1651 389.382Z" fill="#F45B6A"/>
<path d="M125.473 312.797C130.446 309.98 136.767 311.728 139.584 316.71C142.4 321.683 140.653 328.005 135.67 330.821C130.697 333.638 124.376 331.89 121.559 326.908C118.752 321.934 120.5 315.613 125.473 312.797Z" fill="white"/>
<path d="M136.507 332.271C130.743 335.534 123.4 333.498 120.137 327.735C116.874 321.972 118.91 314.628 124.673 311.365M126.291 314.238C122.108 316.608 120.648 321.925 123.009 326.099C125.371 330.263 130.697 331.742 134.871 329.38C139.035 327.019 140.513 321.693 138.152 317.519C135.791 313.355 130.455 311.876 126.291 314.238Z" fill="#84A9F6"/>
<path d="M113.863 292.346C112.013 289.594 108.713 288.46 106.259 289.855C103.805 291.249 103.07 294.661 104.483 297.663C104.511 297.756 104.557 297.84 104.613 297.923L138.413 357.621C138.478 357.742 138.552 357.835 138.636 357.937C140.495 360.595 143.739 361.646 146.137 360.289C148.564 358.913 149.307 355.613 147.987 352.647C147.95 352.536 147.894 352.406 147.829 352.285L114.03 292.588C113.983 292.504 113.918 292.42 113.863 292.346Z" fill="#84A9F6"/>
<path d="M146.946 361.73C143.832 363.496 139.705 362.297 137.316 358.95C137.176 358.783 137.065 358.625 136.962 358.439L103.163 298.742C103.089 298.602 103.033 298.481 102.968 298.314C101.174 294.475 102.234 290.227 105.459 288.405C108.676 286.583 112.849 287.866 115.238 291.37C115.331 291.5 115.424 291.621 115.499 291.761L149.298 351.458C149.391 351.625 149.484 351.82 149.558 352.025C151.166 355.799 150.06 359.963 146.946 361.73Z" fill="#F45B6A"/>
<path d="M51.2082 338.335L29.7314 350.495L52.3063 390.367L73.783 378.207L51.2082 338.335Z" fill="#84A9F6"/>
<path d="M88.4665 411.387C92.5567 415.403 71.2973 423.927 71.2973 423.927L56.7866 387.832L70.6745 379.968C70.6745 379.968 82.917 405.921 88.4665 411.387Z" fill="#F45B6A"/>
<path d="M51.9994 348.288C52.5293 349.217 52.1946 350.416 51.265 350.937L39.4037 357.648C38.4741 358.178 37.2749 357.844 36.7544 356.914C36.2245 355.984 36.5592 354.785 37.4887 354.265L49.3501 347.553C50.2797 347.023 51.4788 347.358 51.9994 348.288Z" fill="white"/>
<path d="M56.4796 356.199C57.0095 357.128 56.6748 358.327 55.7453 358.848L43.8839 365.56C42.9543 366.089 41.7552 365.755 41.2346 364.825C40.7047 363.896 41.0394 362.696 41.969 362.176L53.8303 355.464C54.7599 354.934 55.9498 355.269 56.4796 356.199Z" fill="white"/>
<path d="M60.7931 363.821C61.323 364.75 60.9883 365.949 60.0587 366.47L48.1974 373.182C47.2678 373.711 46.0686 373.377 45.5481 372.447C45.0182 371.518 45.3529 370.319 46.2824 369.798L58.1438 363.086C59.0734 362.557 60.2725 362.891 60.7931 363.821Z" fill="white"/>
<path d="M65.2736 371.731C65.8034 372.661 65.4688 373.86 64.5392 374.381L52.6778 381.092C51.7483 381.622 50.5491 381.288 50.0285 380.358C49.4987 379.428 49.8333 378.229 50.7629 377.709L62.6243 370.997C63.5539 370.467 64.7344 370.783 65.2736 371.731Z" fill="white"/>
<path d="M138.691 303.343C138.217 303.612 137.622 303.631 137.111 303.361C136.293 302.952 135.996 301.939 136.405 301.121L147.569 279.75C147.978 278.932 148.991 278.635 149.809 279.044C150.627 279.453 150.925 280.466 150.515 281.284L139.351 302.655C139.193 302.971 138.961 303.185 138.691 303.343Z" fill="#84A9F6"/>
<path d="M176.488 329.009C176.218 329.167 175.912 329.25 175.577 329.213L151.51 327.791C150.599 327.726 149.902 326.954 149.958 326.034C150.014 325.105 150.795 324.426 151.715 324.482L175.782 325.904C176.693 325.969 177.39 326.741 177.334 327.661C177.287 328.246 176.962 328.739 176.488 329.009Z" fill="#84A9F6"/>
<path d="M178.709 298.964L148.554 316.031C147.755 316.478 146.751 316.199 146.295 315.409C145.849 314.609 146.128 313.605 146.918 313.15L177.073 296.083C177.873 295.637 178.877 295.915 179.332 296.706C179.788 297.505 179.509 298.509 178.709 298.964Z" fill="#84A9F6"/>
<path d="M79.6633 369.426L120.249 354.72C121.476 354.274 122.833 354.906 123.279 356.142C123.725 357.369 123.093 358.727 121.857 359.173C121.792 359.201 121.727 359.219 121.662 359.238L79.9422 370.309C79.6912 370.374 79.4402 370.225 79.3752 369.974C79.3101 369.742 79.4402 369.5 79.6633 369.426Z" fill="#CCCECD"/>
</svg>
